<?xml version="1.0" standalone="no"?>
<!DOCTYPE svg PUBLIC "-//W3C//DTD SVG 20010904//EN"
 "http://www.w3.org/TR/2001/REC-SVG-20010904/DTD/svg10.dtd">
<svg version="1.0" xmlns="http://www.w3.org/2000/svg"
 width="4250.000000pt" height="3442.000000pt" viewBox="0 0 4250.000000 3442.000000"
 preserveAspectRatio="xMidYMid meet">

<g transform="translate(0.000000,3442.000000) scale(0.100000,-0.100000)"
fill="#000000" stroke="none">
<path d="M16108 34163 c-258 -251 -446 -433 -1243 -1203 -242 -233 -525 -508
-630 -610 -104 -102 -455 -442 -780 -755 -888 -857 -1033 -999 -1026 -1006 3
-3 213 -34 466 -68 253 -35 620 -85 815 -112 195 -27 479 -65 630 -86 151 -20
278 -39 281 -42 4 -3 17 -145 28 -316 12 -170 29 -399 37 -509 8 -109 14 -199
12 -200 -2 -1 -68 -37 -147 -80 -185 -100 -333 -189 -493 -296 -114 -76 -192
-146 -720 -645 -648 -610 -654 -617 -867 -935 -196 -291 -387 -641 -507 -928
l-39 -94 -7 2922 c-4 1607 -9 2924 -12 2927 -6 7 -527 -166 -811 -269 -1947
-706 -3725 -1743 -5270 -3073 -341 -294 -547 -486 -910 -849 -589 -590 -1055
-1125 -1532 -1761 -1956 -2608 -3109 -5741 -3337 -9070 -55 -798 -55 -1649 0
-2440 182 -2637 1010 -5131 2412 -7265 787 -1199 1745 -2276 2877 -3235 975
-827 2107 -1565 3315 -2164 2289 -1135 4872 -1796 7640 -1956 867 -49 1869
-46 2740 10 3849 249 7253 1490 9908 3614 680 544 1367 1205 1927 1856 1004
1167 1796 2458 2404 3919 715 1716 1120 3630 1202 5675 24 603 3 1626 -46
2266 -296 3846 -1672 7332 -3945 9995 -496 581 -1142 1227 -1720 1720 -1143
974 -2460 1792 -3875 2405 -440 191 -872 355 -1370 521 l-340 113 -5 -2971 -5
-2970 -44 108 c-63 157 -224 486 -320 654 -46 80 -134 222 -196 315 -225 338
-223 335 -870 948 -584 552 -592 559 -760 671 -401 268 -842 490 -1315 662
l-145 52 -6 74 c-4 40 -64 314 -133 608 -70 294 -125 543 -124 554 2 14 50 39
188 98 102 44 192 86 201 94 9 8 19 31 22 51 8 48 42 94 94 129 23 16 43 32
43 36 0 4 -6 31 -14 61 -22 83 -39 347 -33 482 4 66 18 248 32 404 14 156 25
300 23 320 -3 34 -6 37 -128 101 -168 89 -1755 953 -2315 1260 -247 136 -547
299 -665 362 -118 64 -235 128 -260 142 -25 14 -52 26 -61 26 -9 0 -131 -111
-271 -247z m-4571 -11018 l-4 -7021 514 -484 c556 -524 626 -590 929 -869 109
-101 343 -322 519 -491 176 -169 1156 -1095 2179 -2059 l1859 -1752 26 24 c14
13 1363 1286 2996 2828 l2970 2803 3 56 c2 30 7 59 13 65 5 5 9 2879 9 7687 0
4223 3 7678 6 7678 13 0 350 -122 559 -202 1620 -621 3140 -1521 4415 -2613
396 -339 1040 -964 1351 -1310 835 -930 1512 -1886 2114 -2985 123 -226 420
-822 525 -1055 888 -1974 1401 -4087 1545 -6365 30 -477 38 -825 32 -1434 -5
-584 -11 -727 -42 -1156 -225 -3037 -1214 -5757 -2914 -8015 -388 -515 -776
-961 -1266 -1451 -422 -423 -746 -715 -1185 -1065 -2624 -2098 -5987 -3306
-9835 -3533 -844 -50 -1847 -47 -2715 10 -3183 206 -6122 1099 -8610 2617
-730 446 -1484 996 -2105 1536 -481 419 -1015 950 -1426 1416 -1397 1587
-2422 3460 -3014 5504 -630 2181 -769 4612 -399 7016 656 4268 2879 8027 6274
10606 1343 1021 2900 1855 4540 2432 l125 44 8 -721 c4 -396 6 -3880 4 -7741z
m6338 3105 c1071 -67 2036 -388 2911 -970 475 -316 933 -740 1281 -1187 193
-248 406 -588 554 -883 128 -257 187 -405 320 -800 66 -195 122 -362 125 -370
4 -9 27 45 54 125 l48 140 1 -1064 c1 -1030 0 -1064 -17 -1048 -10 10 -23 17
-29 17 -6 0 -62 26 -125 59 -196 101 -4393 2316 -6863 3621 -726 384 -1513
800 -1750 925 -236 125 -431 228 -433 230 -5 5 229 175 358 260 842 554 1822
879 2845 944 189 12 536 12 720 1z m-5020 -4250 c1052 -554 2484 -1297 7397
-3836 510 -263 927 -482 928 -486 0 -12 -183 -150 -345 -260 -643 -438 -1373
-745 -2130 -897 -1270 -256 -2610 -86 -3750 474 -599 294 -1067 627 -1515
1075 -421 420 -743 867 -1004 1390 -128 258 -189 411 -329 824 l-121 360 -32
-95 -32 -94 -1 1018 -1 1017 53 -26 c28 -15 426 -223 882 -464z"/>
<path d="M26060 22048 l0 -5623 -4260 -4023 -4261 -4023 -109 103 c-61 57
-1979 1865 -4264 4018 l-4154 3915 -1 5623 c-1 3798 -4 5622 -11 5622 -24 0
-655 -460 -930 -679 -3001 -2381 -4871 -5781 -5199 -9451 -41 -464 -46 -583
-46 -1200 1 -646 9 -831 60 -1335 178 -1756 704 -3446 1561 -5022 849 -1560
2041 -2990 3458 -4147 1260 -1029 2670 -1836 4230 -2420 3259 -1221 6973
-1287 10291 -181 2570 856 4831 2363 6551 4366 1745 2033 2849 4494 3173 7074
78 625 96 931 96 1675 0 636 -4 741 -46 1205 -246 2750 -1370 5380 -3219 7535
-251 292 -394 445 -749 800 -524 524 -928 878 -1481 1297 -162 122 -585 427
-662 478 l-28 17 0 -5624z m-12976 -9994 c2447 -2306 4452 -4194 4455 -4194 3
0 2006 1889 4451 4197 l4445 4197 5 5338 5 5337 120 -91 c807 -612 1610 -1383
2274 -2183 1058 -1275 1874 -2739 2386 -4280 344 -1039 536 -2025 627 -3240
21 -273 17 -1368 -5 -1665 -122 -1622 -485 -3047 -1137 -4475 -872 -1907
-2205 -3607 -3880 -4951 -1348 -1080 -2856 -1899 -4520 -2455 -1958 -654
-4036 -893 -6140 -708 -3775 332 -7270 2083 -9698 4857 -940 1075 -1697 2276
-2250 3572 -605 1418 -938 2888 -1013 4465 -15 324 -6 1120 16 1420 119 1617
482 3049 1135 4480 916 2006 2335 3774 4140 5158 l125 96 5 -5340 5 -5340
4449 -4195z"/>
<path d="M19890 32502 c0 -6 -12 -142 -26 -304 -30 -338 -36 -627 -15 -794 7
-62 16 -116 20 -121 3 -4 47 -22 98 -39 l92 -31 173 75 c95 41 358 156 583
255 226 99 422 184 438 189 15 6 27 13 27 17 0 4 -33 24 -72 46 -177 94 -1218
660 -1265 687 -29 16 -53 25 -53 20z"/>
</g>
</svg>
